<svg width="95" height="31" viewBox="0 0 95 31" fill="none" xmlns="http://www.w3.org/2000/svg">
<g clip-path="url(#clip0_6736_21789)">
<path d="M7.22221 4.35498C7.8858 4.35114 8.54544 4.46214 9.17449 4.68351C9.77514 4.90229 10.3241 5.25357 10.7842 5.71364C11.2648 6.20406 11.6445 6.79247 11.8998 7.44259C12.1991 8.22693 12.3593 9.06193 12.3726 9.90658C12.3726 10.146 12.3938 10.4773 12.3938 10.8838C12.3938 11.2903 12.3938 11.6188 12.3726 11.861C12.3621 12.706 12.2019 13.5415 11.8998 14.325C11.6424 14.9731 11.263 15.5602 10.7842 16.0512C10.3255 16.5099 9.77586 16.8569 9.17449 17.0674C8.54509 17.2867 7.88548 17.3957 7.22221 17.3904C6.79444 17.3981 6.36731 17.3523 5.94989 17.2539C5.64685 17.1863 5.35321 17.0788 5.076 16.9337C4.85567 16.812 4.65345 16.6573 4.4757 16.4744C4.31783 16.3098 4.16801 16.1369 4.0268 15.9565V16.5133C4.02405 16.6857 3.95732 16.8501 3.84078 16.9718C3.72423 17.0934 3.56705 17.1627 3.4026 17.1648H0.621551C0.540277 17.1652 0.459729 17.1487 0.384507 17.1165C0.309285 17.0842 0.240864 17.0368 0.183147 16.9767C0.12543 16.9168 0.0795497 16.8455 0.0481253 16.7669C0.0167009 16.6884 0.00034807 16.6041 0 16.5189V0.665992C0.00205011 0.493615 0.0681106 0.328863 0.184159 0.206705C0.300207 0.0845473 0.457106 0.0146027 0.621551 0.0117188H3.51681C3.68151 0.0145846 3.83869 0.084437 3.95517 0.206522C4.07165 0.328605 4.13829 0.493363 4.14102 0.665992V5.81108C4.2692 5.64406 4.40761 5.48596 4.55538 5.33778C4.7443 5.15644 4.95187 4.9977 5.17428 4.86448C5.45054 4.71003 5.74289 4.58951 6.04551 4.50532C6.42906 4.40247 6.82367 4.35194 7.21956 4.35498H7.22221ZM8.25547 10.2016C8.21819 9.66713 8.03364 9.15553 7.72423 8.72887C7.53378 8.50377 7.29501 8.32934 7.02763 8.21994C6.76024 8.11055 6.47187 8.06932 6.18629 8.09965C5.88568 8.09204 5.58668 8.14791 5.30709 8.26391C5.07909 8.36914 4.87257 8.51945 4.69883 8.70659C4.54161 8.88851 4.41417 9.0964 4.32164 9.32189C4.2311 9.54539 4.16861 9.78033 4.13571 10.0207C4.06931 10.5829 4.06931 11.1514 4.13571 11.7135C4.16502 11.9547 4.22765 12.1901 4.32164 12.4123C4.415 12.6411 4.54429 12.8519 4.70413 13.0359C4.87544 13.2282 5.08244 13.3817 5.31241 13.487C5.58903 13.6077 5.8867 13.6665 6.18629 13.6596C6.47141 13.6901 6.75937 13.6496 7.02666 13.5412C7.29395 13.4328 7.53298 13.2597 7.72423 13.0359C8.0319 12.6083 8.21625 12.0972 8.25547 11.5631C8.3033 11.1162 8.3033 10.6652 8.25547 10.2184" fill="white"/>
<path d="M22.3488 4.60254C22.5133 4.60542 22.6702 4.67537 22.7862 4.79753C22.9023 4.91968 22.9683 5.08444 22.9704 5.25681V7.6985C22.9677 7.87066 22.9014 8.03501 22.7855 8.15702C22.6696 8.27904 22.5131 8.3492 22.3488 8.35278H20.2531C18.8426 8.35278 18.1282 9.09614 18.1282 10.5801V16.5187C18.1254 16.6913 18.0588 16.856 17.9423 16.9781C17.8259 17.1002 17.6687 17.1701 17.5039 17.173H14.6166C14.4522 17.1701 14.2953 17.1001 14.1792 16.978C14.0632 16.8558 13.9972 16.6911 13.9951 16.5187V5.25681C13.9972 5.08444 14.0632 4.91968 14.1792 4.79753C14.2953 4.67537 14.4522 4.60542 14.6166 4.60254H17.2729C17.4375 4.6054 17.5947 4.67526 17.7112 4.79734C17.8277 4.91943 17.8943 5.08419 17.897 5.25681V5.81364C18.2687 5.44661 18.6994 5.15157 19.1694 4.94221C19.7346 4.70453 20.3401 4.58991 20.949 4.60532L22.3488 4.60254Z" fill="white"/>
<path d="M23.3929 13.5917C23.3835 13.0869 23.4841 12.5866 23.6871 12.1287C23.8901 11.6708 24.1901 11.2676 24.5643 10.9496C25.3372 10.2591 26.6016 9.74959 28.3467 9.42381L31.0375 8.94497C31.0509 8.59908 30.9442 8.2598 30.7373 7.99001C30.601 7.85146 30.4373 7.74598 30.2578 7.68104C30.0784 7.61609 29.8875 7.59326 29.6987 7.61415C29.4188 7.59973 29.1396 7.65407 28.8833 7.77285C28.7326 7.85125 28.5894 7.94448 28.4556 8.05126C28.3455 8.16386 28.2104 8.24612 28.0625 8.2907C27.9192 8.32754 27.7716 8.34255 27.6242 8.33525H24.7024C24.5629 8.34209 24.4264 8.29108 24.3226 8.19326C24.2726 8.14528 24.2348 8.08507 24.2126 8.01801C24.1903 7.95095 24.1843 7.87914 24.195 7.80905C24.2429 7.38714 24.401 6.98727 24.6519 6.65363C24.9629 6.21283 25.3482 5.83539 25.7888 5.53997C26.9483 4.75213 28.3036 4.33963 29.6854 4.35393C30.5121 4.338 31.336 4.45922 32.1265 4.71308C32.7574 4.92032 33.3413 5.26043 33.8424 5.71258C34.2868 6.13081 34.63 6.65375 34.8437 7.2383C35.0641 7.86174 35.1731 8.52239 35.1652 9.18719V16.5039C35.1624 16.6758 35.0961 16.8399 34.9801 16.9614C34.8642 17.083 34.7076 17.1526 34.5436 17.1554H31.6377C31.4737 17.1526 31.3173 17.083 31.2013 16.9614C31.0853 16.8399 31.0189 16.6758 31.0162 16.5039V15.819C30.6472 16.3028 30.1811 16.6955 29.6509 16.9688C28.9699 17.2827 28.2294 17.4293 27.4861 17.3977C26.8894 17.406 26.2954 17.312 25.7277 17.1192C25.251 16.9487 24.8125 16.6777 24.4394 16.3229C24.0951 15.9839 23.8235 15.572 23.6426 15.1147C23.4694 14.6292 23.3795 14.1155 23.377 13.5973L23.3929 13.5917ZM28.6176 14.1541C28.9405 14.1552 29.2609 14.0948 29.5632 13.9759C29.8426 13.8599 30.0993 13.691 30.3203 13.4776C30.5348 13.2708 30.7074 13.0208 30.8276 12.7425C30.9501 12.4562 31.0134 12.146 31.0135 11.8321L28.8886 12.1718C28.5295 12.2287 28.1873 12.3696 27.8872 12.5838C27.7709 12.6677 27.6758 12.78 27.6101 12.9109C27.5444 13.0419 27.5101 13.1876 27.51 13.3355C27.4977 13.4593 27.5176 13.5841 27.5677 13.6969C27.6177 13.8097 27.696 13.9061 27.7942 13.9759C28.0465 14.1091 28.3276 14.1706 28.6097 14.1541" fill="white"/>
<path d="M49.0311 16.5101C49.0291 16.6825 48.963 16.8473 48.8469 16.9695C48.7309 17.0916 48.574 17.1616 48.4096 17.1644H45.5143C45.3496 17.1616 45.1924 17.0917 45.0759 16.9697C44.9595 16.8476 44.8928 16.6828 44.8901 16.5101V10.3851C44.9199 9.78567 44.748 9.19442 44.404 8.71458C44.2139 8.49738 43.9787 8.32874 43.7168 8.2216C43.4548 8.11445 43.1728 8.07166 42.8926 8.09649C42.6115 8.07101 42.3286 8.11489 42.0666 8.22464C41.8047 8.33439 41.5708 8.50696 41.3839 8.7285C41.0486 9.21213 40.8826 9.80202 40.9137 10.399V16.5241C40.9124 16.6972 40.8461 16.8628 40.7294 16.9851C40.6126 17.1075 40.4547 17.1769 40.2895 17.1783H37.3942C37.2299 17.1755 37.0729 17.1055 36.9569 16.9834C36.8408 16.8612 36.7748 16.6965 36.7727 16.5241V5.23996C36.7734 5.06715 36.839 4.90158 36.9554 4.77911C37.0717 4.65665 37.2294 4.58716 37.3942 4.58569H40.1753C40.3391 4.58998 40.4949 4.66046 40.6103 4.78239C40.7256 4.90433 40.7916 5.06828 40.7943 5.23996V5.7968C40.9346 5.61481 41.0873 5.44361 41.2511 5.28451C41.4527 5.09831 41.6758 4.93931 41.9152 4.81121C42.2046 4.66282 42.5095 4.54979 42.8236 4.47433C43.2204 4.38284 43.6257 4.33709 44.0321 4.3379C44.7201 4.33895 45.4034 4.45551 46.0562 4.68314C46.6489 4.88592 47.1883 5.23104 47.6313 5.691C48.0871 6.1768 48.4362 6.76119 48.6539 7.40325C48.9155 8.19516 49.0414 9.02933 49.0258 9.86721V16.5101H49.0311Z" fill="white"/>
<path d="M54.7953 10.0337C54.7316 10.5951 54.7316 11.1624 54.7953 11.7237C54.8209 12.2557 55.0451 12.7558 55.4195 13.1158C55.8278 13.4827 56.3538 13.6738 56.8911 13.6504C57.2888 13.674 57.6861 13.5966 58.0492 13.4249C58.3177 13.2743 58.5445 13.0537 58.708 12.7845C58.7808 12.6596 58.8703 12.5461 58.9735 12.4476C59.0852 12.3487 59.2286 12.2979 59.3747 12.3057H62.3841C62.468 12.3048 62.5512 12.3216 62.6288 12.3551C62.7063 12.3885 62.7767 12.438 62.8357 12.5005C62.8976 12.5568 62.9455 12.628 62.9752 12.7081C63.0047 12.7881 63.0152 12.8746 63.0056 12.9599C62.9567 13.3505 62.8557 13.7319 62.7055 14.093C62.4891 14.6541 62.1645 15.1621 61.7519 15.5854C61.2171 16.1338 60.5856 16.5678 59.8926 16.8632C58.9427 17.2572 57.9253 17.441 56.9044 17.4034C56.0887 17.4124 55.277 17.2836 54.5005 17.022C53.7888 16.7825 53.1264 16.4048 52.5482 15.9083C51.9924 15.4306 51.5397 14.8347 51.2201 14.1598C50.8858 13.4392 50.7003 12.6528 50.6756 11.8518C50.6623 11.6124 50.6543 11.295 50.6543 10.8829C50.6543 10.4708 50.6543 10.1619 50.6756 9.91406C50.6907 9.13615 50.8661 8.37088 51.1897 7.6707C51.5134 6.97052 51.9778 6.352 52.5509 5.85755C53.1298 5.36213 53.7919 4.98443 54.5031 4.74389C55.2803 4.48399 56.0913 4.3525 56.907 4.35411C57.9279 4.31778 58.945 4.50162 59.8953 4.89424C60.5861 5.19781 61.2167 5.63406 61.7546 6.18051C62.1704 6.60108 62.4986 7.10726 62.7188 7.66724C62.8686 8.02849 62.9697 8.40987 63.019 8.80039C63.0262 8.8855 63.0145 8.9712 62.9851 9.05086C62.9556 9.13052 62.909 9.202 62.849 9.25977C62.7899 9.32227 62.7196 9.37172 62.642 9.40519C62.5644 9.43863 62.4813 9.45544 62.3974 9.45469H59.3747C59.2284 9.46381 59.0846 9.41289 58.9735 9.31267C58.8715 9.21287 58.7822 9.09964 58.708 8.97578C58.5466 8.70471 58.3192 8.48366 58.0492 8.33543C57.6859 8.16442 57.2888 8.0871 56.8911 8.10991C56.3527 8.07863 55.8241 8.27064 55.4195 8.64448C55.2328 8.82171 55.0816 9.03601 54.9744 9.27496C54.8673 9.51388 54.8064 9.77277 54.7953 10.0366" fill="white"/>
<path d="M76.8649 16.5096C76.8628 16.682 76.7967 16.8467 76.6807 16.9689C76.5646 17.091 76.4077 17.161 76.2432 17.1638H73.348C73.1833 17.161 73.0261 17.0911 72.9096 16.9691C72.7932 16.8469 72.7265 16.6822 72.7238 16.5096V10.3845C72.7541 9.78504 72.5821 9.19359 72.2377 8.71396C72.0472 8.49515 71.8115 8.32475 71.5487 8.21573C71.2859 8.10669 71.0028 8.0619 70.721 8.08475C70.4413 8.05871 70.1596 8.1021 69.8989 8.21142C69.6382 8.32073 69.4056 8.4929 69.2203 8.71396C68.8864 9.19845 68.7197 9.78748 68.7475 10.3845V16.5096C68.7467 16.6824 68.6811 16.848 68.5648 16.9704C68.4485 17.0929 68.2908 17.1624 68.1259 17.1638H65.2307C65.0659 17.161 64.9087 17.0911 64.7923 16.9691C64.6758 16.8469 64.6092 16.6822 64.6064 16.5096V0.665015C64.6092 0.492386 64.6758 0.327629 64.7923 0.205544C64.9087 0.0834603 65.0659 0.013608 65.2307 0.0107422H68.1259C68.2904 0.013626 68.4472 0.0835707 68.5633 0.205729C68.6794 0.327886 68.7454 0.492639 68.7475 0.665015V5.81011C69.1446 5.35286 69.6286 4.98782 70.1684 4.73848C70.7082 4.48913 71.2919 4.36101 71.8818 4.36235C72.5685 4.3541 73.252 4.46223 73.9058 4.68253C74.4974 4.88498 75.0358 5.2291 75.4783 5.6876C75.9342 6.17444 76.2832 6.75975 76.5009 7.40263C76.764 8.19416 76.89 9.02861 76.8728 9.86658V16.5096H76.8649Z" fill="white"/>
<path d="M85.612 4.62446L82.8735 0.604161C82.8177 0.528989 82.7167 0.40927 82.5786 0.245006C82.4914 0.158856 82.3881 0.0927956 82.2751 0.0510776C82.1621 0.00935962 82.042 -0.00709074 81.9226 0.00278603H78.504C78.3715 0.00493968 78.245 0.0610702 78.1513 0.159289C78.0576 0.257509 78.004 0.390102 78.002 0.528989C78.0021 0.626784 78.0269 0.722809 78.0737 0.807403L83.0806 8.19373L85.612 4.62446Z" fill="#FDB62F"/>
<path d="M83.5454 8.92864L78.3181 16.6157C78.2916 16.6654 78.2719 16.7189 78.2597 16.7744C78.2569 16.8096 78.2569 16.8449 78.2597 16.8801C78.2609 17.0171 78.3129 17.1482 78.4046 17.2458C78.4962 17.3435 78.6204 17.4 78.751 17.4036H82.2041C82.4241 17.4277 82.6452 17.3696 82.8283 17.2393C82.9431 17.1233 83.0456 16.9945 83.1338 16.8551L86.0316 12.5731L86.1034 5.35938L83.5454 8.92864Z" fill="#A9D59B"/>
<path d="M93.9655 0.161508C93.9207 0.111354 93.866 0.0713968 93.806 0.0441025C93.7459 0.0168083 93.6805 0.00275586 93.6151 0.00281207H90.1619C90.0418 -0.00711397 89.9217 0.00930393 89.8079 0.0510144C89.695 0.0927249 89.5907 0.158808 89.5031 0.245032C89.3677 0.400944 89.2667 0.523446 89.2109 0.604186L86.5547 4.62449L89.0171 8.30233L94.0453 0.785156C94.0874 0.698738 94.1125 0.603829 94.117 0.506741C94.117 0.437867 94.1035 0.369686 94.0775 0.306455C94.0515 0.243223 94.0139 0.186299 93.9655 0.139235" fill="#748BC5"/>
<path d="M93.7369 16.6157L88.5521 9.02609L86.0844 5.35938L86.0127 12.5731L88.9346 16.8551C89.0211 16.9964 89.1248 17.1255 89.2426 17.2393C89.423 17.3759 89.6465 17.4346 89.867 17.4036H93.3067C93.4385 17.4008 93.5639 17.3447 93.6571 17.2472C93.7495 17.1496 93.8032 17.018 93.8059 16.8801C93.805 16.8445 93.8005 16.8091 93.7925 16.7744C93.7817 16.7195 93.7647 16.6662 93.7423 16.6157" fill="#F16878"/>
<path d="M19.1202 28.2449C19.0619 28.2449 19.0153 28.2265 18.9803 28.1899C18.9452 28.1532 18.9277 28.1042 18.9277 28.0431V22.0343C18.9277 21.967 18.9452 21.915 18.9803 21.8783C19.0153 21.8417 19.0619 21.8232 19.1202 21.8232H21.4046C21.813 21.8232 22.1456 21.8997 22.4023 22.0526C22.6649 22.2055 22.8575 22.4074 22.98 22.6581C23.1025 22.9027 23.1637 23.1718 23.1637 23.4654C23.1637 23.7283 23.123 23.9546 23.0412 24.1442C22.9654 24.3278 22.8662 24.4776 22.7437 24.5938C22.627 24.71 22.5103 24.7987 22.3936 24.8598C22.627 24.9821 22.8341 25.1778 23.015 25.447C23.1959 25.716 23.2864 26.0432 23.2864 26.4285C23.2864 26.7343 23.2163 27.0279 23.0763 27.3092C22.9421 27.5844 22.7379 27.8107 22.4636 27.988C22.1952 28.1593 21.8626 28.2449 21.4658 28.2449H19.1202ZM19.4791 27.6945H21.3784C21.8101 27.6945 22.1427 27.5752 22.3761 27.3367C22.6153 27.0982 22.7349 26.7955 22.7349 26.4285C22.7349 26.0554 22.6153 25.7527 22.3761 25.5203C22.1427 25.2818 21.8101 25.1625 21.3784 25.1625H19.4791V27.6945ZM19.4791 24.6121H21.2908C21.7226 24.6121 22.0494 24.5112 22.2711 24.3093C22.4987 24.1076 22.6124 23.8262 22.6124 23.4654C22.6124 23.1046 22.4987 22.8324 22.2711 22.6489C22.0494 22.4654 21.7226 22.3737 21.2908 22.3737H19.4791V24.6121Z" fill="white"/>
<path d="M25.7571 28.3366C25.4771 28.3366 25.2174 28.2755 24.9782 28.1532C24.7447 28.0308 24.5551 27.8688 24.4093 27.6669C24.2634 27.459 24.1904 27.2266 24.1904 26.9697C24.1904 26.5538 24.3509 26.2205 24.6719 25.9698C24.9927 25.7191 25.4099 25.5569 25.9234 25.4836L27.3062 25.2818V24.9607C27.3062 24.6365 27.21 24.3827 27.0174 24.1992C26.8307 24.0097 26.5302 23.9149 26.116 23.9149C25.8125 23.9149 25.5675 23.9791 25.3808 24.1076C25.194 24.2299 25.0657 24.3919 24.9957 24.5938C24.9665 24.6855 24.9111 24.7313 24.8293 24.7313H24.6894C24.6194 24.7313 24.5697 24.713 24.5406 24.6763C24.5114 24.6335 24.4968 24.5846 24.4968 24.5295C24.4968 24.444 24.526 24.3369 24.5843 24.2084C24.6485 24.08 24.7447 23.9546 24.8732 23.8323C25.0015 23.7039 25.1678 23.5969 25.372 23.5112C25.5763 23.4256 25.8243 23.3828 26.116 23.3828C26.4602 23.3828 26.7432 23.4318 26.9649 23.5295C27.1925 23.6274 27.3676 23.7558 27.4901 23.9149C27.6184 24.0678 27.7088 24.2391 27.7614 24.4286C27.8139 24.6182 27.8401 24.8048 27.8401 24.9882V28.0431C27.8401 28.1042 27.8227 28.1532 27.7876 28.1899C27.7526 28.2265 27.706 28.2449 27.6476 28.2449H27.4988C27.4404 28.2449 27.3938 28.2265 27.3588 28.1899C27.3237 28.1532 27.3062 28.1042 27.3062 28.0431V27.6119C27.2363 27.722 27.137 27.8321 27.0087 27.9422C26.8803 28.0523 26.714 28.147 26.5098 28.2265C26.3114 28.3 26.0605 28.3366 25.7571 28.3366ZM25.8446 27.8045C26.113 27.8045 26.3581 27.7434 26.5799 27.6211C26.8016 27.4988 26.9766 27.3122 27.105 27.0615C27.2391 26.8046 27.3062 26.4836 27.3062 26.0982V25.7863L26.1772 25.9515C25.6988 26.0188 25.337 26.135 25.0919 26.3001C24.8469 26.4652 24.7244 26.6731 24.7244 26.9239C24.7244 27.1257 24.7798 27.2908 24.8907 27.4193C25.0015 27.5477 25.1415 27.6455 25.3107 27.7129C25.4858 27.774 25.6637 27.8045 25.8446 27.8045Z" fill="white"/>
<path d="M29.4161 28.2449C29.3578 28.2449 29.3111 28.2265 29.2762 28.1899C29.2411 28.1532 29.2236 28.1042 29.2236 28.0431V23.6764C29.2236 23.6152 29.2411 23.5663 29.2762 23.5295C29.3111 23.4929 29.3578 23.4746 29.4161 23.4746H29.5649C29.6233 23.4746 29.67 23.4929 29.705 23.5295C29.7399 23.5663 29.7575 23.6152 29.7575 23.6764V24.1076C29.915 23.8935 30.1046 23.7192 30.3263 23.5846C30.5539 23.4501 30.8544 23.3828 31.2279 23.3828C31.6246 23.3828 31.9543 23.4746 32.2168 23.6581C32.4853 23.8354 32.6836 24.08 32.812 24.3919C32.9462 24.6977 33.0133 25.0463 33.0133 25.4377V28.0431C33.0133 28.1042 32.9958 28.1532 32.9608 28.1899C32.9258 28.2265 32.8791 28.2449 32.8207 28.2449H32.672C32.6136 28.2449 32.5669 28.2265 32.532 28.1899C32.4969 28.1532 32.4794 28.1042 32.4794 28.0431V25.4836C32.4794 24.9943 32.3656 24.6121 32.1381 24.3369C31.9105 24.0555 31.5779 23.9149 31.1403 23.9149C30.7261 23.9149 30.3905 24.0555 30.1338 24.3369C29.8829 24.6121 29.7575 24.9943 29.7575 25.4836V28.0431C29.7575 28.1042 29.7399 28.1532 29.705 28.1899C29.67 28.2265 29.6233 28.2449 29.5649 28.2449H29.4161Z" fill="white"/>
<path d="M34.5881 28.2448C34.5297 28.2448 34.4831 28.2264 34.448 28.1898C34.413 28.1531 34.3955 28.1041 34.3955 28.043V21.9332C34.3955 21.8721 34.413 21.8231 34.448 21.7865C34.4831 21.7498 34.5297 21.7314 34.5881 21.7314H34.7369C34.7952 21.7314 34.8419 21.7498 34.8769 21.7865C34.9119 21.8231 34.9294 21.8721 34.9294 21.9332V25.1808L36.8811 23.6304C36.9628 23.5632 37.0212 23.5203 37.0562 23.5019C37.097 23.4836 37.1612 23.4745 37.2487 23.4745H37.415C37.4675 23.4745 37.5084 23.4928 37.5376 23.5294C37.5725 23.5601 37.5901 23.6029 37.5901 23.658C37.5901 23.6824 37.5813 23.713 37.5638 23.7496C37.5521 23.7803 37.523 23.8108 37.4763 23.8414L35.262 25.6028L37.6951 27.8778C37.771 27.9513 37.8089 28.0124 37.8089 28.0614C37.8089 28.1163 37.7914 28.1623 37.7564 28.1989C37.7271 28.2295 37.6864 28.2448 37.6338 28.2448H37.4938C37.4063 28.2448 37.3421 28.2387 37.3013 28.2264C37.2662 28.2081 37.2079 28.1623 37.1262 28.0888L34.9294 26.0431V28.043C34.9294 28.1041 34.9119 28.1531 34.8769 28.1898C34.8419 28.2264 34.7952 28.2448 34.7369 28.2448H34.5881Z" fill="white"/>
<path d="M38.8435 28.2448C38.7852 28.2448 38.7385 28.2264 38.7036 28.1898C38.6685 28.1531 38.651 28.1041 38.651 28.043V23.6763C38.651 23.6151 38.6685 23.5662 38.7036 23.5294C38.7385 23.4928 38.7852 23.4745 38.8435 23.4745H38.9923C39.0507 23.4745 39.0974 23.4928 39.1324 23.5294C39.1673 23.5662 39.1849 23.6151 39.1849 23.6763V28.043C39.1849 28.1041 39.1673 28.1531 39.1324 28.1898C39.0974 28.2264 39.0507 28.2448 38.9923 28.2448H38.8435ZM38.7473 22.4928C38.6889 22.4928 38.6423 22.4745 38.6072 22.4378C38.5723 22.4011 38.5547 22.3522 38.5547 22.291V21.9424C38.5547 21.8813 38.5723 21.8323 38.6072 21.7956C38.6423 21.7529 38.6889 21.7314 38.7473 21.7314H39.0799C39.1382 21.7314 39.1849 21.7529 39.2199 21.7956C39.2607 21.8323 39.2812 21.8813 39.2812 21.9424V22.291C39.2812 22.3522 39.2607 22.4011 39.2199 22.4378C39.1849 22.4745 39.1382 22.4928 39.0799 22.4928H38.7473Z" fill="white"/>
<path d="M40.7922 28.2449C40.7339 28.2449 40.6872 28.2265 40.6521 28.1899C40.6172 28.1532 40.5996 28.1042 40.5996 28.0431V23.6764C40.5996 23.6152 40.6172 23.5663 40.6521 23.5295C40.6872 23.4929 40.7339 23.4746 40.7922 23.4746H40.941C40.9993 23.4746 41.046 23.4929 41.081 23.5295C41.116 23.5663 41.1335 23.6152 41.1335 23.6764V24.1076C41.2911 23.8935 41.4807 23.7192 41.7024 23.5846C41.93 23.4501 42.2305 23.3828 42.6039 23.3828C43.0007 23.3828 43.3303 23.4746 43.5929 23.6581C43.8613 23.8354 44.0597 24.08 44.188 24.3919C44.3223 24.6977 44.3893 25.0463 44.3893 25.4377V28.0431C44.3893 28.1042 44.3718 28.1532 44.3368 28.1899C44.3018 28.2265 44.2551 28.2449 44.1968 28.2449H44.048C43.9897 28.2449 43.943 28.2265 43.9079 28.1899C43.873 28.1532 43.8554 28.1042 43.8554 28.0431V25.4836C43.8554 24.9943 43.7417 24.6121 43.5141 24.3369C43.2866 24.0555 42.954 23.9149 42.5164 23.9149C42.1021 23.9149 41.7666 24.0555 41.5099 24.3369C41.259 24.6121 41.1335 24.9943 41.1335 25.4836V28.0431C41.1335 28.1042 41.116 28.1532 41.081 28.1899C41.046 28.2265 40.9993 28.2449 40.941 28.2449H40.7922Z" fill="white"/>
<path d="M47.4603 30.2631C47.087 30.2631 46.7806 30.2112 46.5414 30.1072C46.308 30.0032 46.1243 29.8748 45.99 29.7218C45.8617 29.5751 45.7712 29.4253 45.7187 29.2723C45.6662 29.1256 45.637 29.0063 45.6311 28.9146C45.6253 28.8534 45.6429 28.8014 45.6837 28.7586C45.7245 28.722 45.7712 28.7035 45.8237 28.7035H45.9463C45.993 28.7035 46.0337 28.7127 46.0688 28.7311C46.1038 28.7556 46.1329 28.8106 46.1563 28.8962C46.1913 28.9941 46.2468 29.1072 46.3226 29.2356C46.4043 29.3702 46.5297 29.4864 46.6989 29.5842C46.8739 29.6821 47.1132 29.7311 47.4166 29.7311C47.7375 29.7311 48.006 29.6882 48.2218 29.6026C48.4377 29.517 48.6011 29.3641 48.7119 29.1439C48.8286 28.9298 48.887 28.6302 48.887 28.2449V27.6119C48.7411 27.8199 48.5485 27.9941 48.3093 28.1348C48.076 28.2694 47.7784 28.3366 47.4166 28.3366C47.0782 28.3366 46.7893 28.2725 46.5501 28.1439C46.3168 28.0155 46.1271 27.8443 45.9813 27.6303C45.8354 27.4162 45.7275 27.1777 45.6574 26.9147C45.5874 26.6517 45.5495 26.3857 45.5437 26.1165C45.5379 25.9454 45.5379 25.7741 45.5437 25.6029C45.5495 25.3337 45.5874 25.0677 45.6574 24.8048C45.7275 24.5417 45.8354 24.3032 45.9813 24.0891C46.1271 23.8751 46.3168 23.7039 46.5501 23.5755C46.7893 23.4471 47.0782 23.3828 47.4166 23.3828C47.7784 23.3828 48.076 23.4532 48.3093 23.5938C48.5485 23.7344 48.7411 23.9057 48.887 24.1076V23.6856C48.887 23.6244 48.9045 23.5755 48.9395 23.5388C48.9745 23.4959 49.0212 23.4746 49.0796 23.4746H49.2196C49.2779 23.4746 49.3246 23.4959 49.3596 23.5388C49.4004 23.5755 49.4208 23.6244 49.4208 23.6856V28.1532C49.4208 28.5446 49.3655 28.8993 49.2546 29.2173C49.1437 29.5354 48.9453 29.7891 48.6594 29.9788C48.3793 30.1683 47.9797 30.2631 47.4603 30.2631ZM47.4691 27.8045C47.8017 27.8045 48.0701 27.722 48.2743 27.5568C48.4786 27.3918 48.6273 27.1869 48.7207 26.9422C48.8199 26.6915 48.8753 26.4407 48.887 26.19C48.8928 26.0982 48.8957 25.9881 48.8957 25.8597C48.8957 25.7313 48.8928 25.6212 48.887 25.5294C48.8753 25.2787 48.8199 25.031 48.7207 24.7864C48.6273 24.5356 48.4786 24.3277 48.2743 24.1626C48.0701 23.9975 47.8017 23.9149 47.4691 23.9149C47.1307 23.9149 46.8594 23.9944 46.6552 24.1534C46.4568 24.3124 46.3138 24.5203 46.2263 24.7772C46.1388 25.0341 46.0892 25.3093 46.0776 25.6029C46.0717 25.7741 46.0717 25.9454 46.0776 26.1165C46.0892 26.4101 46.1388 26.6853 46.2263 26.9422C46.3138 27.1991 46.4568 27.407 46.6552 27.566C46.8594 27.7251 47.1307 27.8045 47.4691 27.8045Z" fill="white"/>
<path d="M53.4104 28.2449C53.3519 28.2449 53.3053 28.2265 53.2703 28.1899C53.2353 28.1532 53.2178 28.1042 53.2178 28.0431V22.0343C53.2178 21.967 53.2353 21.915 53.2703 21.8783C53.3053 21.8417 53.3519 21.8232 53.4104 21.8232H56.7887C56.8529 21.8232 56.9024 21.8417 56.9375 21.8783C56.9725 21.915 56.99 21.967 56.99 22.0343V22.1719C56.99 22.233 56.9725 22.2819 56.9375 22.3187C56.9024 22.3553 56.8529 22.3737 56.7887 22.3737H53.7691V24.8414H56.6137C56.6778 24.8414 56.7274 24.8598 56.7624 24.8965C56.7974 24.9332 56.815 24.9851 56.815 25.0524V25.19C56.815 25.2512 56.7974 25.3001 56.7624 25.3369C56.7274 25.3735 56.6778 25.3919 56.6137 25.3919H53.7691V28.0431C53.7691 28.1042 53.7517 28.1532 53.7166 28.1899C53.6817 28.2265 53.632 28.2449 53.5678 28.2449H53.4104Z" fill="white"/>
<path d="M59.7261 28.3366C59.3061 28.3366 58.953 28.2449 58.6671 28.0615C58.3871 27.8779 58.1712 27.6272 58.0195 27.3092C57.8736 26.9911 57.7948 26.6364 57.7832 26.2451C57.7774 26.1533 57.7744 26.0249 57.7744 25.8597C57.7744 25.6946 57.7774 25.5662 57.7832 25.4745C57.7948 25.0769 57.8736 24.7222 58.0195 24.4102C58.1712 24.0922 58.3871 23.8415 58.6671 23.6581C58.953 23.4746 59.3061 23.3828 59.7261 23.3828C60.1463 23.3828 60.4963 23.4746 60.7764 23.6581C61.0623 23.8415 61.2782 24.0922 61.4241 24.4102C61.5758 24.7222 61.6575 25.0769 61.6691 25.4745C61.675 25.5662 61.6779 25.6946 61.6779 25.8597C61.6779 26.0249 61.675 26.1533 61.6691 26.2451C61.6575 26.6364 61.5758 26.9911 61.4241 27.3092C61.2782 27.6272 61.0623 27.8779 60.7764 28.0615C60.4963 28.2449 60.1463 28.3366 59.7261 28.3366ZM59.7261 27.8045C60.1346 27.8045 60.4672 27.6669 60.7239 27.3918C60.9807 27.1165 61.1178 26.719 61.1353 26.1991C61.1411 26.1074 61.144 25.9942 61.144 25.8597C61.144 25.7252 61.1411 25.612 61.1353 25.5203C61.1178 24.9943 60.9807 24.5968 60.7239 24.3277C60.4672 24.0525 60.1346 23.9149 59.7261 23.9149C59.3177 23.9149 58.9851 24.0525 58.7284 24.3277C58.4717 24.5968 58.3346 24.9943 58.3171 25.5203C58.3113 25.612 58.3083 25.7252 58.3083 25.8597C58.3083 25.9942 58.3113 26.1074 58.3171 26.1991C58.3346 26.719 58.4717 27.1165 58.7284 27.3918C58.9851 27.6669 59.3177 27.8045 59.7261 27.8045Z" fill="white"/>
<path d="M63.0666 28.2449C63.0083 28.2449 62.9616 28.2265 62.9265 28.1899C62.8916 28.1532 62.874 28.1042 62.874 28.0431V23.6856C62.874 23.6244 62.8916 23.5755 62.9265 23.5388C62.9616 23.4959 63.0083 23.4746 63.0666 23.4746H63.2066C63.265 23.4746 63.3116 23.4959 63.3467 23.5388C63.3875 23.5755 63.4079 23.6244 63.4079 23.6856V24.1076C63.5129 23.8935 63.6647 23.7344 63.863 23.6305C64.0614 23.5266 64.3065 23.4746 64.5982 23.4746H64.9221C64.9804 23.4746 65.0271 23.4929 65.0621 23.5296C65.0971 23.5663 65.1146 23.6152 65.1146 23.6764V23.8048C65.1146 23.866 65.0971 23.9149 65.0621 23.9516C65.0271 23.9883 64.9804 24.0067 64.9221 24.0067H64.5458C64.1956 24.0067 63.9185 24.1137 63.7142 24.3278C63.5101 24.5418 63.4079 24.8323 63.4079 25.1992V28.0431C63.4079 28.1042 63.3875 28.1532 63.3467 28.1899C63.3116 28.2265 63.265 28.2449 63.2066 28.2449H63.0666Z" fill="white"/>
<path d="M68.2658 28.2449C68.2075 28.2449 68.1608 28.2265 68.1258 28.1899C68.0908 28.1532 68.0732 28.1042 68.0732 28.0431V22.0343C68.0732 21.967 68.0908 21.915 68.1258 21.8783C68.1608 21.8417 68.2075 21.8232 68.2658 21.8232H70.5501C70.9585 21.8232 71.2911 21.8997 71.5479 22.0526C71.8104 22.2055 72.003 22.4074 72.1255 22.6581C72.248 22.9027 72.3093 23.1718 72.3093 23.4654C72.3093 23.7283 72.2685 23.9546 72.1868 24.1442C72.1109 24.3278 72.0117 24.4776 71.8892 24.5938C71.7725 24.71 71.6558 24.7987 71.5391 24.8598C71.7725 24.9821 71.9796 25.1778 72.1606 25.447C72.3414 25.716 72.4319 26.0432 72.4319 26.4285C72.4319 26.7343 72.3619 27.0279 72.2218 27.3092C72.0876 27.5844 71.8834 27.8107 71.6091 27.988C71.3407 28.1593 71.0082 28.2449 70.6114 28.2449H68.2658ZM68.6247 27.6945H70.5239C70.9557 27.6945 71.2883 27.5752 71.5216 27.3367C71.7608 27.0982 71.8805 26.7955 71.8805 26.4285C71.8805 26.0554 71.7608 25.7527 71.5216 25.5203C71.2883 25.2818 70.9557 25.1625 70.5239 25.1625H68.6247V27.6945ZM68.6247 24.6121H70.4363C70.8681 24.6121 71.1949 24.5112 71.4166 24.3093C71.6442 24.1076 71.7579 23.8262 71.7579 23.4654C71.7579 23.1046 71.6442 22.8324 71.4166 22.6489C71.1949 22.4654 70.8681 22.3737 70.4363 22.3737H68.6247V24.6121Z" fill="white"/>
<path d="M73.8781 28.2448C73.8197 28.2448 73.7731 28.2264 73.7381 28.1898C73.703 28.1531 73.6855 28.1041 73.6855 28.043V21.9332C73.6855 21.8721 73.703 21.8231 73.7381 21.7865C73.7731 21.7498 73.8197 21.7314 73.8781 21.7314H74.0269C74.0853 21.7314 74.1319 21.7498 74.1669 21.7865C74.2019 21.8231 74.2194 21.8721 74.2194 21.9332V24.1075C74.377 23.8934 74.5666 23.7191 74.7884 23.5845C75.0159 23.45 75.3164 23.3827 75.6898 23.3827C76.0865 23.3827 76.4163 23.4745 76.6788 23.658C76.9472 23.8353 77.1456 24.0799 77.2739 24.3918C77.4081 24.6976 77.4752 25.0462 77.4752 25.4376V28.043C77.4752 28.1041 77.4578 28.1531 77.4227 28.1898C77.3878 28.2264 77.3411 28.2448 77.2827 28.2448H77.1339C77.0755 28.2448 77.0289 28.2264 76.9939 28.1898C76.9588 28.1531 76.9414 28.1041 76.9414 28.043V25.4835C76.9414 24.9942 76.8276 24.612 76.6 24.3368C76.3724 24.0554 76.0398 23.9148 75.6023 23.9148C75.188 23.9148 74.8525 24.0554 74.5957 24.3368C74.3449 24.612 74.2194 24.9942 74.2194 25.4835V28.043C74.2194 28.1041 74.2019 28.1531 74.1669 28.1898C74.1319 28.2264 74.0853 28.2448 74.0269 28.2448H73.8781Z" fill="white"/>
<path d="M80.0734 28.3366C79.7934 28.3366 79.5337 28.2755 79.2945 28.1532C79.0612 28.0308 78.8715 27.8688 78.7256 27.6669C78.5798 27.459 78.5068 27.2266 78.5068 26.9697C78.5068 26.5538 78.6673 26.2205 78.9882 25.9698C79.3091 25.7191 79.7263 25.5569 80.2398 25.4836L81.6226 25.2818V24.9607C81.6226 24.6365 81.5263 24.3827 81.3338 24.1992C81.147 24.0097 80.8466 23.9149 80.4323 23.9149C80.1289 23.9149 79.8838 23.9791 79.6971 24.1076C79.5104 24.2299 79.3821 24.3919 79.312 24.5938C79.2829 24.6855 79.2274 24.7313 79.1458 24.7313H79.0057C78.9357 24.7313 78.8861 24.713 78.8569 24.6763C78.8278 24.6335 78.8132 24.5846 78.8132 24.5295C78.8132 24.444 78.8423 24.3369 78.9006 24.2084C78.9649 24.08 79.0612 23.9546 79.1895 23.8323C79.3178 23.7039 79.4842 23.5969 79.6883 23.5112C79.8926 23.4256 80.1406 23.3828 80.4323 23.3828C80.7765 23.3828 81.0596 23.4318 81.2813 23.5295C81.5088 23.6274 81.6839 23.7558 81.8064 23.9149C81.9348 24.0678 82.0252 24.2391 82.0778 24.4286C82.1302 24.6182 82.1564 24.8048 82.1564 24.9882V28.0431C82.1564 28.1042 82.139 28.1532 82.104 28.1899C82.069 28.2265 82.0223 28.2449 81.9639 28.2449H81.8152C81.7568 28.2449 81.7101 28.2265 81.6751 28.1899C81.6401 28.1532 81.6226 28.1042 81.6226 28.0431V27.6119C81.5526 27.722 81.4534 27.8321 81.325 27.9422C81.1967 28.0523 81.0303 28.147 80.8262 28.2265C80.6278 28.3 80.3769 28.3366 80.0734 28.3366ZM80.161 27.8045C80.4294 27.8045 80.6745 27.7434 80.8962 27.6211C81.1179 27.4988 81.2929 27.3122 81.4213 27.0615C81.5555 26.8046 81.6226 26.4836 81.6226 26.0982V25.7863L80.4936 25.9515C80.0151 26.0188 79.6534 26.135 79.4083 26.3001C79.1632 26.4652 79.0407 26.6731 79.0407 26.9239C79.0407 27.1257 79.0961 27.2908 79.207 27.4193C79.3178 27.5477 79.4579 27.6455 79.6271 27.7129C79.8022 27.774 79.9801 27.8045 80.161 27.8045Z" fill="white"/>
<path d="M83.7326 28.2449C83.6742 28.2449 83.6276 28.2265 83.5926 28.1899C83.5575 28.1532 83.54 28.1042 83.54 28.0431V23.6856C83.54 23.6244 83.5575 23.5755 83.5926 23.5388C83.6276 23.4959 83.6742 23.4746 83.7326 23.4746H83.8726C83.931 23.4746 83.9777 23.4959 84.0127 23.5388C84.0535 23.5755 84.0739 23.6244 84.0739 23.6856V24.1076C84.179 23.8935 84.3307 23.7344 84.529 23.6305C84.7274 23.5266 84.9725 23.4746 85.2642 23.4746H85.5881C85.6464 23.4746 85.693 23.4929 85.7281 23.5296C85.7631 23.5663 85.7806 23.6152 85.7806 23.6764V23.8048C85.7806 23.866 85.7631 23.9149 85.7281 23.9516C85.693 23.9883 85.6464 24.0067 85.5881 24.0067H85.2117C84.8616 24.0067 84.5845 24.1137 84.3802 24.3278C84.176 24.5418 84.0739 24.8323 84.0739 25.1992V28.0431C84.0739 28.1042 84.0535 28.1532 84.0127 28.1899C83.9777 28.2265 83.931 28.2449 83.8726 28.2449H83.7326Z" fill="white"/>
<path d="M87.7405 28.3366C87.4605 28.3366 87.2008 28.2755 86.9615 28.1532C86.7281 28.0308 86.5385 27.8688 86.3927 27.6669C86.2468 27.459 86.1738 27.2266 86.1738 26.9697C86.1738 26.5538 86.3343 26.2205 86.6552 25.9698C86.9761 25.7191 87.3933 25.5569 87.9068 25.4836L89.2896 25.2818V24.9607C89.2896 24.6365 89.1934 24.3827 89.0008 24.1992C88.8141 24.0097 88.5136 23.9149 88.0994 23.9149C87.7959 23.9149 87.5509 23.9791 87.3641 24.1076C87.1774 24.2299 87.0491 24.3919 86.9791 24.5938C86.9499 24.6855 86.8945 24.7313 86.8128 24.7313H86.6728C86.6027 24.7313 86.5531 24.713 86.5239 24.6763C86.4948 24.6335 86.4802 24.5846 86.4802 24.5295C86.4802 24.444 86.5094 24.3369 86.5677 24.2084C86.6319 24.08 86.7281 23.9546 86.8565 23.8323C86.9849 23.7039 87.1512 23.5969 87.3554 23.5112C87.5596 23.4256 87.8076 23.3828 88.0994 23.3828C88.4436 23.3828 88.7266 23.4318 88.9483 23.5295C89.1758 23.6274 89.3509 23.7558 89.4735 23.9149C89.6018 24.0678 89.6921 24.2391 89.7449 24.4286C89.7969 24.6182 89.8238 24.8048 89.8238 24.9882V28.0431C89.8238 28.1042 89.8059 28.1532 89.7709 28.1899C89.736 28.2265 89.6894 28.2449 89.6311 28.2449H89.4822C89.4238 28.2449 89.3771 28.2265 89.3422 28.1899C89.3071 28.1532 89.2896 28.1042 89.2896 28.0431V27.6119C89.2197 27.722 89.1204 27.8321 88.992 27.9422C88.8637 28.0523 88.6974 28.147 88.4932 28.2265C88.2948 28.3 88.0439 28.3366 87.7405 28.3366ZM87.828 27.8045C88.0964 27.8045 88.3414 27.7434 88.5632 27.6211C88.7849 27.4988 88.9599 27.3122 89.0884 27.0615C89.2225 26.8046 89.2896 26.4836 89.2896 26.0982V25.7863L88.1606 25.9515C87.6822 26.0188 87.3204 26.135 87.0753 26.3001C86.8302 26.4652 86.7077 26.6731 86.7077 26.9239C86.7077 27.1257 86.7632 27.2908 86.8741 27.4193C86.9849 27.5477 87.1249 27.6455 87.2941 27.7129C87.4691 27.774 87.6471 27.8045 87.828 27.8045Z" fill="white"/>
<path d="M92.6958 28.2448C92.3928 28.2448 92.1535 28.1776 91.9779 28.043C91.8031 27.9084 91.6803 27.725 91.6104 27.4926C91.5405 27.2602 91.5056 27.0002 91.5056 26.7128V24.0066H90.8226C90.7644 24.0066 90.7178 23.9882 90.6828 23.9515C90.6479 23.9148 90.6309 23.8658 90.6309 23.8047V23.6763C90.6309 23.6151 90.6479 23.5662 90.6828 23.5294C90.7178 23.4928 90.7644 23.4745 90.8226 23.4745H91.5056V21.9332C91.5056 21.8721 91.5235 21.8231 91.5585 21.7865C91.5934 21.7498 91.64 21.7314 91.6983 21.7314H91.847C91.9053 21.7314 91.9519 21.7498 91.9869 21.7865C92.0218 21.8231 92.0397 21.8721 92.0397 21.9332V23.4745H93.1251C93.1833 23.4745 93.2299 23.4928 93.2649 23.5294C93.2998 23.5662 93.3178 23.6151 93.3178 23.6763V23.8047C93.3178 23.8658 93.2998 23.9148 93.2649 23.9515C93.2299 23.9882 93.1833 24.0066 93.1251 24.0066H92.0397V26.676C92.0397 27.0002 92.089 27.2541 92.1885 27.4375C92.2934 27.621 92.4771 27.7128 92.7397 27.7128H93.212C93.2711 27.7128 93.3178 27.7311 93.3527 27.7678C93.3877 27.8044 93.4047 27.8534 93.4047 27.9145V28.043C93.4047 28.1041 93.3877 28.1531 93.3527 28.1898C93.3178 28.2264 93.2711 28.2448 93.212 28.2448H92.6958Z" fill="white"/>
</g>
<defs>
<clipPath id="clip0_6736_21789">
<rect width="95" height="31" fill="white"/>
</clipPath>
</defs>
</svg>
